<svg width="49" height="48" viewBox="0 0 49 48" fill="none" xmlns="http://www.w3.org/2000/svg">
<rect x="0.255859" width="48" height="48" rx="24" fill="black"/>
<path d="M29.5059 21.75C29.5059 19.7609 28.7157 17.8532 27.3092 16.4467C25.9026 15.0402 23.995 14.25 22.0059 14.25C20.0167 14.25 18.1091 15.0402 16.7026 16.4467C15.296 17.8532 14.5059 19.7609 14.5059 21.75C14.5059 23.7391 15.296 25.6468 16.7026 27.0533C18.1091 28.4598 20.0167 29.25 22.0059 29.25C23.995 29.25 25.9026 28.4598 27.3092 27.0533C28.7157 25.6468 29.5059 23.7391 29.5059 21.75ZM28.0574 29.3953C26.398 30.7125 24.2934 31.5 22.0059 31.5C16.6199 31.5 12.2559 27.1359 12.2559 21.75C12.2559 16.3641 16.6199 12 22.0059 12C27.3918 12 31.7559 16.3641 31.7559 21.75C31.7559 24.0375 30.9684 26.1422 29.6512 27.8016L35.4637 33.6141L36.2605 34.4109L34.6668 36L33.8699 35.2031L28.0574 29.3906V29.3953Z" fill="#EDA619"/>
</svg>
