<svg width="16" height="16" viewBox="0 0 16 16" fill="none" xmlns="http://www.w3.org/2000/svg">
<path d="M12.667 7.33366H8.66699V3.33366C8.66699 3.15685 8.59675 2.98728 8.47173 2.86225C8.34671 2.73723 8.17714 2.66699 8.00033 2.66699C7.82351 2.66699 7.65395 2.73723 7.52892 2.86225C7.4039 2.98728 7.33366 3.15685 7.33366 3.33366V7.33366H3.33366C3.15685 7.33366 2.98728 7.4039 2.86225 7.52892C2.73723 7.65395 2.66699 7.82351 2.66699 8.00033C2.66699 8.17714 2.73723 8.34671 2.86225 8.47173C2.98728 8.59675 3.15685 8.66699 3.33366 8.66699H7.33366V12.667C7.33366 12.8438 7.4039 13.0134 7.52892 13.1384C7.65395 13.2634 7.82351 13.3337 8.00033 13.3337C8.17714 13.3337 8.34671 13.2634 8.47173 13.1384C8.59675 13.0134 8.66699 12.8438 8.66699 12.667V8.66699H12.667C12.8438 8.66699 13.0134 8.59675 13.1384 8.47173C13.2634 8.34671 13.3337 8.17714 13.3337 8.00033C13.3337 7.82351 13.2634 7.65395 13.1384 7.52892C13.0134 7.4039 12.8438 7.33366 12.667 7.33366Z" fill="black"/>
</svg>
