<svg width="70" height="66" viewBox="0 0 70 66" fill="none" xmlns="http://www.w3.org/2000/svg">
<path d="M19.2965 4.02715C19.4202 3.96648 21.5849 3.23839 24.1207 2.44963C26.6564 1.6002 28.9448 0.932782 29.2541 0.872108C29.5014 0.811434 30.6147 3.48109 31.728 6.75748C33.3979 11.7327 33.9545 12.6429 35.1296 12.8249C36.3666 12.9462 36.6758 12.3395 38.4075 7.06085C39.5208 3.78446 40.3867 1.05413 40.4485 0.993456C40.4485 0.932782 42.7987 1.53952 45.6437 2.38896C48.4887 3.17772 50.7153 4.20918 50.7153 4.63389C50.7153 4.99794 50.0349 7.42489 49.1691 9.91253C48.3032 12.4002 47.6229 15.0698 47.6229 15.8586C47.6229 16.5867 48.0558 17.3147 48.5506 17.4968C49.0454 17.6788 51.7667 16.2226 54.6117 14.2204C57.3948 12.2181 59.8069 10.7013 59.9925 10.762C60.178 10.8833 61.6005 12.7642 63.2704 15.0091C64.8784 17.1934 66.1772 19.135 66.1772 19.317C66.1772 19.499 63.9507 21.1979 61.1676 23.1394C57.4567 25.7484 56.2816 26.9012 56.4053 27.8113C56.5908 28.9035 57.1474 29.0248 69.8881 29.3282V40.2495H0V29.3282H6.37033C11.3182 29.3889 12.8644 29.2068 13.421 28.4181C13.9158 27.872 14.0395 27.2046 13.6684 26.7799C13.3591 26.3552 11.0089 24.4743 8.47316 22.6541C4.2675 19.681 3.83457 19.1956 4.45305 18.1035C4.82414 17.4361 6.30848 15.4339 7.66914 13.6743C9.89566 10.8833 10.3286 10.5799 11.2563 11.2474C11.8748 11.6721 14.2869 13.4316 16.6989 15.0698C20.5953 17.8001 21.152 17.9822 22.0178 17.1934C22.8837 16.4046 22.76 15.6766 21.0283 10.2159C19.9769 6.87883 19.1728 4.08783 19.2965 4.02715Z" fill="#EF420E"/>
<path d="M13.0499 50.6247C12.9262 48.8652 12.9881 46.9843 13.1736 46.5596C13.4828 45.8315 17.4411 45.7102 56.2816 45.7102V54.2045L13.2973 53.9011L13.0499 50.6247Z" fill="#EF420E"/>
<path d="M26.5946 65.1258V62.3955V59.6652H43.2935L42.9843 64.8224L26.5946 65.1258Z" fill="#EF420E"/>
</svg>
