<svg width="33" height="32" viewBox="0 0 33 32" fill="none" xmlns="http://www.w3.org/2000/svg">
<path d="M2.5 16C2.5 8.26875 8.76875 2 16.5 2C24.2313 2 30.5 8.26875 30.5 16V28.0063L22.5 28V26H20.5H14.5H12.5V28V30V32H14.5H20.5H22.5V30L31.5 30.0063H32.5V29.0063V16C32.5 7.1625 25.3375 0 16.5 0C7.6625 0 0.5 7.1625 0.5 16V19V20H2.5V19V16ZM20.5 29V30H14.5V28H20.5V29ZM6.5 14H10.5V22H6.5V14ZM4.5 12V14V22V24H6.5H10.5H12.5V22V14V12H10.5H6.5H4.5ZM22.5 14H26.5V22H22.5V14ZM26.5 12H22.5H20.5V14V22V24H22.5H26.5H28.5V22V14V12H26.5Z" fill="black"/>
</svg>
