<svg width="33" height="32" viewBox="0 0 33 32" fill="none" xmlns="http://www.w3.org/2000/svg">
<path d="M16.5 2C20.213 2 23.774 3.475 26.3995 6.1005C29.025 8.72601 30.5 12.287 30.5 16C30.5 19.713 29.025 23.274 26.3995 25.8995C23.774 28.525 20.213 30 16.5 30C12.787 30 9.22601 28.525 6.6005 25.8995C3.975 23.274 2.5 19.713 2.5 16C2.5 12.287 3.975 8.72601 6.6005 6.1005C9.22601 3.475 12.787 2 16.5 2ZM16.5 32C20.7435 32 24.8131 30.3143 27.8137 27.3137C30.8143 24.3131 32.5 20.2435 32.5 16C32.5 11.7565 30.8143 7.68687 27.8137 4.68629C24.8131 1.68571 20.7435 0 16.5 0C12.2565 0 8.18687 1.68571 5.18629 4.68629C2.18571 7.68687 0.5 11.7565 0.5 16C0.5 20.2435 2.18571 24.3131 5.18629 27.3137C8.18687 30.3143 12.2565 32 16.5 32ZM23.2062 12.7063L23.9125 12L22.5 10.5875L21.7938 11.2937L14.5 18.5875L11.2063 15.2937L10.5 14.5875L9.0875 16L9.79375 16.7062L13.7937 20.7062L14.5 21.4125L15.2063 20.7062L23.2062 12.7063Z" fill="black"/>
</svg>
