<svg width="49" height="49" viewBox="0 0 49 49" fill="none" xmlns="http://www.w3.org/2000/svg">
<path d="M42.334 3.79688V45.7969H6.33398V3.79688H42.334ZM6.33398 0.796875H3.33398V3.79688V45.7969V48.7969H6.33398H42.334H45.334V45.7969V3.79688V0.796875H42.334H6.33398ZM18.334 11.2969V14.2969H19.834H36.334H37.834V11.2969H36.334H19.834H18.334ZM22.834 23.2969V26.2969H24.334H36.334H37.834V23.2969H36.334H24.334H22.834ZM18.334 35.2969V38.2969H19.834H36.334H37.834V35.2969H36.334H19.834H18.334ZM14.584 10.5469H10.084V15.0469H14.584V10.5469ZM10.084 34.5469V39.0469H14.584V34.5469H10.084ZM18.6434 23.6063L19.7027 22.5469L17.584 20.4281L16.5246 21.4875L13.084 24.9281L11.8934 23.7375L10.834 22.6781L8.71523 24.7969L9.77461 25.8562L12.0246 28.1062L13.084 29.1656L14.1434 28.1062L18.6434 23.6063Z" fill="white"/>
</svg>
