<svg width="49" height="49" viewBox="0 0 49 49" fill="none" xmlns="http://www.w3.org/2000/svg">
<path d="M2.16602 3.79688H0.666016V5.29688V44.2969V45.7969H2.16602H47.166H48.666V44.2969V11.2969V9.79688H47.166H11.166H9.66602V12.7969H11.166H45.666V42.7969H3.66602V6.79688H44.166H45.666V3.79688H44.166H2.16602ZM36.666 30.0469C37.2628 30.0469 37.835 29.8098 38.257 29.3879C38.679 28.9659 38.916 28.3936 38.916 27.7969C38.916 27.2001 38.679 26.6278 38.257 26.2059C37.835 25.7839 37.2628 25.5469 36.666 25.5469C36.0693 25.5469 35.497 25.7839 35.075 26.2059C34.6531 26.6278 34.416 27.2001 34.416 27.7969C34.416 28.3936 34.6531 28.9659 35.075 29.3879C35.497 29.8098 36.0693 30.0469 36.666 30.0469Z" fill="white"/>
</svg>
