<svg width="16" height="17" viewBox="0 0 16 17" fill="none" xmlns="http://www.w3.org/2000/svg">
<path d="M2.00379 4.63672L8.00067 2.30859L14.0007 4.63672C14.0319 5.99609 13.785 7.97734 12.9444 9.91172C12.06 11.9398 10.535 13.8992 8.00067 15.0617C5.46629 13.9023 3.94129 11.943 3.06004 9.91172C2.21942 7.97734 1.97254 5.99609 2.00379 4.63672ZM15.485 4.23047L15.4475 3.58984L14.8475 3.35547L8.36317 0.839844L8.00067 0.699219L7.63816 0.839844L1.15379 3.35547L0.556915 3.58984L0.519415 4.23047C0.42879 5.78984 0.67254 8.17734 1.68504 10.5086C2.70692 12.8586 4.52879 15.1961 7.60379 16.5273L8.00067 16.6992L8.39754 16.5273C11.4725 15.1961 13.2944 12.8617 14.3163 10.5086C15.3288 8.17422 15.5725 5.78984 15.4819 4.23047H15.485ZM11.5319 7.23047L12.0632 6.69922L11.0007 5.63984L10.4694 6.17109L7.00067 9.63984L5.53192 8.17109L5.00067 7.63984L3.94129 8.69922L4.47254 9.23047L6.47254 11.2305L7.00379 11.7617L7.53504 11.2305L11.5319 7.23047Z" fill="#37C871"/>
</svg>
