<svg width="48" height="49" viewBox="0 0 48 49" fill="none" xmlns="http://www.w3.org/2000/svg">
<path d="M24 3.79688C29.5695 3.79688 34.911 6.00937 38.8492 9.94763C42.7875 13.8859 45 19.2273 45 24.7969C45 30.3664 42.7875 35.7079 38.8492 39.6461C34.911 43.5844 29.5695 45.7969 24 45.7969C18.4305 45.7969 13.089 43.5844 9.15076 39.6461C5.21249 35.7079 3 30.3664 3 24.7969C3 19.2273 5.21249 13.8859 9.15076 9.94763C13.089 6.00937 18.4305 3.79688 24 3.79688ZM24 48.7969C30.3652 48.7969 36.4697 46.2683 40.9706 41.7674C45.4714 37.2666 48 31.1621 48 24.7969C48 18.4317 45.4714 12.3272 40.9706 7.82631C36.4697 3.32544 30.3652 0.796875 24 0.796875C17.6348 0.796875 11.5303 3.32544 7.02944 7.82631C2.52856 12.3272 0 18.4317 0 24.7969C0 31.1621 2.52856 37.2666 7.02944 41.7674C11.5303 46.2683 17.6348 48.7969 24 48.7969ZM34.0594 19.8563L35.1188 18.7969L33 16.6781L31.9406 17.7375L21 28.6781L16.0594 23.7375L15 22.6781L12.8812 24.7969L13.9406 25.8562L19.9406 31.8562L21 32.9156L22.0594 31.8562L34.0594 19.8563Z" fill="white"/>
</svg>
