<svg width="33" height="32" viewBox="0 0 33 32" fill="none" xmlns="http://www.w3.org/2000/svg">
<path d="M31.761 14.0662C32.1832 14.594 32.4999 15.2496 32.4999 15.9996C32.4999 17.494 31.2999 18.6162 30.1777 19.2885C29.0054 19.994 27.5499 20.444 26.4054 20.444H20.8277L15.4943 29.7718L15.2388 30.2218H14.7221H9.38878H8.211L8.53323 29.0885L11.0054 20.444H8.49989L6.09989 23.644L5.83322 23.9996H5.38878H1.83322H0.694336L0.972114 22.894L2.69434 15.9996L0.972114 9.10512L0.694336 7.99957H1.83322H5.38878H5.83322L6.09989 8.35512L8.49989 11.5551H11.0054L8.53323 2.91068L8.211 1.77734H9.38878H14.7221H15.2388L15.4943 2.22734L20.8277 11.5551H26.4054C27.5554 11.5551 29.011 12.0218 30.1832 12.7329C30.7777 13.094 31.3388 13.5385 31.761 14.0662ZM29.261 14.2496C28.2999 13.6662 27.1554 13.3273 26.411 13.3273H20.311H19.7943L19.5388 12.8773L14.2054 3.55512H10.5666L13.0388 12.1996L13.361 13.3329H12.1832H8.05545H7.611L7.34434 12.9773L4.94434 9.77734H2.97211L4.47211 15.7829L4.52767 15.9996L4.47211 16.2162L2.97211 22.2218H4.94434L7.34434 19.0218L7.611 18.6662H8.05545H12.1832H13.361L13.0388 19.7996L10.5666 28.444H14.2054L19.5388 19.1162L19.7943 18.6662H20.311H26.4054C27.161 18.6662 28.3054 18.3385 29.261 17.7662C30.2666 17.1607 30.7221 16.5051 30.7221 15.9996C30.7221 15.7718 30.6277 15.4996 30.3721 15.1773C30.1166 14.8551 29.7332 14.5385 29.261 14.2496Z" fill="black"/>
</svg>
