<svg width="241" height="241" viewBox="0 0 241 241" fill="none" xmlns="http://www.w3.org/2000/svg">
<g clip-path="url(#clip0_22001_20204)">
<g clip-path="url(#clip1_22001_20204)">
<g clip-path="url(#clip2_22001_20204)">
<path d="M0.160156 48.3984C0.160156 21.8884 21.6502 0.398438 48.1602 0.398438H192.16C218.67 0.398438 240.16 21.8884 240.16 48.3984V240.398H0.160156V48.3984Z" fill="white"/>
<path d="M196.7 49.3984H43.6202C38.9478 49.3984 35.1602 53.1861 35.1602 57.8584V82.8584C35.1602 87.5308 38.9478 91.3184 43.6202 91.3184H196.7C201.372 91.3184 205.16 87.5308 205.16 82.8584V57.8584C205.16 53.1861 201.372 49.3984 196.7 49.3984Z" fill="white"/>
<path d="M196.7 49.3984H43.6202C38.9478 49.3984 35.1602 53.1861 35.1602 57.8584V82.8584C35.1602 87.5308 38.9478 91.3184 43.6202 91.3184H196.7C201.372 91.3184 205.16 87.5308 205.16 82.8584V57.8584C205.16 53.1861 201.372 49.3984 196.7 49.3984Z" stroke="#F1F1F1" stroke-width="2"/>
<path d="M56.8111 70.3567C56.8111 66.9905 54.0823 64.2617 50.7161 64.2617C47.3499 64.2617 44.6211 66.9905 44.6211 70.3567C44.6211 73.7229 47.3499 76.4517 50.7161 76.4517C54.0823 76.4517 56.8111 73.7229 56.8111 70.3567Z" fill="white"/>
<path d="M56.8111 70.3567C56.8111 66.9905 54.0823 64.2617 50.7161 64.2617C47.3499 64.2617 44.6211 66.9905 44.6211 70.3567C44.6211 73.7229 47.3499 76.4517 50.7161 76.4517C54.0823 76.4517 56.8111 73.7229 56.8111 70.3567Z" stroke="#D9D9D9" stroke-width="2"/>
<path d="M72.7461 65.5111V63.7891H76.1901V75.8591H74.2861V65.5101L72.7461 65.5111ZM91.6581 67.6631C91.3601 67.0891 90.9461 66.6591 90.4171 66.3721C89.8871 66.0741 89.2741 65.9251 88.5791 65.9251C87.8171 65.9251 87.1391 66.0961 86.5431 66.4381C85.9461 66.7814 85.4583 67.2865 85.1361 67.8951C84.8041 68.5251 84.6391 69.2531 84.6391 70.0801C84.6391 70.9081 84.8041 71.6421 85.1361 72.2821C85.4781 72.9121 85.9461 73.3971 86.5431 73.7391C87.1391 74.0811 87.8171 74.2521 88.5791 74.2521C89.6051 74.2521 90.4391 73.9651 91.0791 73.3921C91.7191 72.8171 92.1111 72.0391 92.2541 71.0571H87.9341V69.5511H94.2741V71.0241C94.1555 71.9112 93.8263 72.7571 93.3141 73.4911C92.8019 74.2454 92.1147 74.8643 91.3111 75.2951C90.4941 75.7371 89.5831 75.9571 88.5791 75.9571C87.4971 75.9571 86.5091 75.7091 85.6161 75.2121C84.7305 74.7129 83.9934 73.9875 83.4801 73.1101C82.9611 72.2161 82.7021 71.2061 82.7021 70.0801C82.7021 68.9551 82.9621 67.9451 83.4801 67.0501C83.991 66.1751 84.7291 65.4547 85.6161 64.9651C86.5205 64.4574 87.5419 64.1947 88.5791 64.2031C89.8041 64.2031 90.8911 64.5071 91.8401 65.1131C92.8001 65.7101 93.4961 66.5601 93.9261 67.6631H91.6581ZM102.294 69.9481C102.912 70.0581 103.436 70.3841 103.867 70.9251C104.297 71.4651 104.512 72.0781 104.512 72.7621C104.519 73.3262 104.357 73.8796 104.049 74.3521C103.751 74.8151 103.315 75.1851 102.741 75.4611C102.167 75.7261 101.499 75.8581 100.738 75.8581H96.1351V64.3521H100.522C101.306 64.3521 101.979 64.4851 102.542 64.7501C103.105 65.0141 103.53 65.3731 103.817 65.8261C104.104 66.2671 104.247 66.7641 104.247 67.3161C104.247 67.9781 104.071 68.5301 103.718 68.9711C103.364 69.4131 102.89 69.7381 102.294 69.9481ZM98.0231 69.1861H100.357C100.975 69.1861 101.455 69.0481 101.797 68.7731C102.15 68.4861 102.327 68.0771 102.327 67.5471C102.327 67.0291 102.15 66.6261 101.797 66.3391C101.455 66.0411 100.975 65.8921 100.357 65.8921H98.0231V69.1861ZM100.572 74.3191C101.212 74.3191 101.714 74.1641 102.079 73.8551C102.443 73.5451 102.625 73.1151 102.625 72.5641C102.625 72.0011 102.432 71.5541 102.046 71.2231C101.659 70.8921 101.146 70.7261 100.506 70.7261H98.0231V74.3191H100.572Z" fill="#6C6D75"/>
<path d="M196.7 101.777H43.6202C38.3955 101.777 34.1602 106.013 34.1602 111.237V136.237C34.1602 141.462 38.3955 145.697 43.6202 145.697H196.7C201.925 145.697 206.16 141.462 206.16 136.237V111.237C206.16 106.013 201.925 101.777 196.7 101.777Z" fill="#EDA619"/>
<path d="M56.8111 123.74C56.8111 120.373 54.0823 117.645 50.7161 117.645C47.3499 117.645 44.6211 120.373 44.6211 123.74C44.6211 127.106 47.3499 129.835 50.7161 129.835C54.0823 129.835 56.8111 127.106 56.8111 123.74Z" fill="#E0D700" fill-opacity="0.05"/>
<path d="M56.8111 123.74C56.8111 120.373 54.0823 117.645 50.7161 117.645C47.3499 117.645 44.6211 120.373 44.6211 123.74C44.6211 127.106 47.3499 129.835 50.7161 129.835C54.0823 129.835 56.8111 127.106 56.8111 123.74Z" stroke="#E0D700" stroke-width="2"/>
<path d="M80.9906 119.174H75.6266V122.005C75.8586 121.718 76.1896 121.486 76.6196 121.309C77.0496 121.122 77.5076 121.028 77.9936 121.028C78.8766 121.028 79.5996 121.221 80.1626 121.607C80.7256 121.994 81.1336 122.49 81.3876 123.097C81.6436 123.705 81.7729 124.358 81.7676 125.018C81.7676 126.287 81.4036 127.308 80.6756 128.08C79.9586 128.853 78.9316 129.239 77.5956 129.239C76.3386 129.239 75.3336 128.925 74.5836 128.296C73.8336 127.666 73.4076 126.844 73.3086 125.829H75.5606C75.6596 126.27 75.8806 126.624 76.2226 126.888C76.5756 127.153 77.0226 127.286 77.5626 127.286C78.2146 127.286 78.7056 127.082 79.0366 126.673C79.3676 126.265 79.5336 125.724 79.5336 125.051C79.5336 124.366 79.3626 123.848 79.0196 123.495C78.6896 123.13 78.1976 122.948 77.5466 122.948C77.0836 122.948 76.6966 123.064 76.3876 123.296C76.0786 123.528 75.8576 123.837 75.7256 124.223H73.5076V117.137H80.9906V119.174ZM95.7876 121.16C95.5392 120.691 95.1593 120.306 94.6946 120.051C94.2316 119.797 93.6906 119.67 93.0726 119.67C92.3886 119.67 91.7816 119.825 91.2516 120.134C90.7185 120.446 90.2871 120.906 90.0096 121.458C89.7116 122.032 89.5626 122.694 89.5626 123.445C89.5626 124.217 89.7126 124.891 90.0096 125.465C90.2995 126.019 90.7419 126.478 91.2846 126.789C91.8246 127.098 92.4546 127.253 93.1716 127.253C94.0546 127.253 94.7776 127.021 95.3416 126.557C95.9036 126.083 96.2736 125.426 96.4496 124.587H92.4766V122.816H98.7346V124.836C98.5778 125.646 98.2382 126.41 97.7416 127.07C97.2209 127.766 96.5468 128.332 95.7716 128.726C94.9766 129.134 94.0816 129.339 93.0896 129.339C91.9746 129.339 90.9646 129.09 90.0596 128.594C89.1766 128.097 88.4444 127.37 87.9406 126.491C87.4326 125.597 87.1786 124.582 87.1786 123.445C87.1786 122.308 87.4326 121.293 87.9406 120.399C88.4381 119.515 89.1718 118.787 90.0596 118.296C90.9646 117.789 91.9696 117.535 93.0726 117.535C94.3746 117.535 95.5066 117.855 96.4666 118.495C97.4266 119.124 98.0886 120.013 98.4536 121.16H95.7876ZM107.005 123.312C107.643 123.425 108.216 123.774 108.611 124.289C109.031 124.819 109.24 125.426 109.24 126.11C109.24 126.728 109.086 127.275 108.777 127.749C108.479 128.213 108.043 128.577 107.469 128.842C106.895 129.107 106.216 129.239 105.433 129.239H100.45V117.684H105.218C106.001 117.684 106.674 117.811 107.237 118.065C107.811 118.318 108.242 118.672 108.529 119.124C108.827 119.577 108.976 120.09 108.976 120.664C108.976 121.337 108.793 121.9 108.429 122.352C108.076 122.805 107.601 123.125 107.005 123.312ZM102.767 122.452H104.886C105.438 122.452 105.863 122.33 106.161 122.087C106.459 121.834 106.608 121.475 106.608 121.011C106.608 120.548 106.459 120.189 106.161 119.935C105.863 119.681 105.438 119.554 104.886 119.554H102.767V122.452ZM105.102 127.352C105.664 127.352 106.1 127.219 106.409 126.955C106.73 126.69 106.89 126.314 106.89 125.829C106.89 125.332 106.724 124.946 106.393 124.67C106.062 124.383 105.615 124.24 105.052 124.24H102.767V127.352H105.102Z" fill="black"/>
<path d="M196.7 156.16H43.6202C38.9478 156.16 35.1602 159.948 35.1602 164.62V189.62C35.1602 194.292 38.9478 198.08 43.6202 198.08H196.7C201.372 198.08 205.16 194.292 205.16 189.62V164.62C205.16 159.948 201.372 156.16 196.7 156.16Z" fill="white"/>
<path d="M196.7 156.16H43.6202C38.9478 156.16 35.1602 159.948 35.1602 164.62V189.62C35.1602 194.292 38.9478 198.08 43.6202 198.08H196.7C201.372 198.08 205.16 194.292 205.16 189.62V164.62C205.16 159.948 201.372 156.16 196.7 156.16Z" stroke="#F1F1F1" stroke-width="2"/>
<path d="M56.8111 177.118C56.8111 173.752 54.0823 171.023 50.7161 171.023C47.3499 171.023 44.6211 173.752 44.6211 177.118C44.6211 180.485 47.3499 183.213 50.7161 183.213C54.0823 183.213 56.8111 180.485 56.8111 177.118Z" fill="white"/>
<path d="M56.8111 177.118C56.8111 173.752 54.0823 171.023 50.7161 171.023C47.3499 171.023 44.6211 173.752 44.6211 177.118C44.6211 180.485 47.3499 183.213 50.7161 183.213C54.0823 183.213 56.8111 180.485 56.8111 177.118Z" stroke="#D9D9D9" stroke-width="2"/>
<path d="M72.7461 172.273V170.552H76.1901V182.62H74.2861V172.273H72.7461ZM78.7821 176.429C78.7821 174.519 79.1021 173.029 79.7421 171.959C80.3941 170.877 81.5081 170.336 83.0871 170.336C84.6651 170.336 85.7741 170.877 86.4141 171.959C87.0651 173.029 87.3911 174.519 87.3911 176.429C87.3911 178.36 87.0651 179.872 86.4141 180.965C85.7741 182.046 84.6641 182.587 83.0871 182.587C81.5081 182.587 80.3941 182.046 79.7431 180.965C79.1031 179.872 78.7821 178.36 78.7821 176.429ZM85.5371 176.429C85.5371 175.535 85.4761 174.779 85.3551 174.161C85.2451 173.543 85.0121 173.04 84.6591 172.654C84.3061 172.257 83.7821 172.058 83.0871 172.058C82.3911 172.058 81.8671 172.257 81.5141 172.654C81.1611 173.04 80.9241 173.543 80.8021 174.161C80.6921 174.779 80.6361 175.535 80.6361 176.429C80.6361 177.356 80.6921 178.134 80.8021 178.763C80.9121 179.392 81.1441 179.9 81.4971 180.286C81.8621 180.672 82.3911 180.865 83.0871 180.865C83.7821 180.865 84.3071 180.672 84.6591 180.286C85.0231 179.9 85.2611 179.392 85.3711 178.763C85.4811 178.134 85.5371 177.356 85.5371 176.429ZM102.264 174.426C101.966 173.852 101.552 173.421 101.022 173.134C100.492 172.836 99.8801 172.687 99.1851 172.687C98.4231 172.687 97.7451 172.858 97.1481 173.2C96.5513 173.544 96.0637 174.049 95.7411 174.657C95.4101 175.286 95.2451 176.015 95.2451 176.843C95.2451 177.67 95.4101 178.404 95.7411 179.044C96.0831 179.674 96.5521 180.159 97.1481 180.501C97.7441 180.843 98.4231 181.014 99.1851 181.014C100.211 181.014 101.044 180.728 101.684 180.154C102.325 179.58 102.716 178.802 102.86 177.819H98.5391V176.313H104.88V177.786C104.761 178.673 104.431 179.519 103.919 180.253C103.407 181.008 102.72 181.627 101.916 182.057C101.099 182.499 100.189 182.72 99.1851 182.72C98.1031 182.72 97.1151 182.471 96.2211 181.975C95.3359 181.475 94.5991 180.75 94.0861 179.872C93.5661 178.978 93.3081 177.968 93.3081 176.843C93.3081 175.717 93.5671 174.707 94.0861 173.813C94.5966 172.938 95.3343 172.217 96.2211 171.727C97.1259 171.219 98.1477 170.957 99.1851 170.966C100.41 170.966 101.497 171.269 102.446 171.876C103.406 172.472 104.101 173.322 104.532 174.426H102.264ZM112.899 176.71C113.518 176.821 114.042 177.146 114.472 177.687C114.895 178.206 115.124 178.856 115.118 179.525C115.118 180.109 114.963 180.639 114.654 181.114C114.356 181.577 113.92 181.947 113.346 182.223C112.773 182.488 112.105 182.62 111.343 182.62H106.741V171.115H111.128C111.912 171.115 112.585 171.247 113.148 171.512C113.711 171.777 114.136 172.135 114.423 172.588C114.709 173.029 114.853 173.526 114.853 174.078C114.853 174.74 114.676 175.292 114.323 175.733C113.97 176.175 113.495 176.5 112.899 176.71ZM108.628 175.949H110.963C111.581 175.949 112.061 175.811 112.403 175.535C112.756 175.248 112.933 174.839 112.933 174.31C112.933 173.791 112.756 173.388 112.403 173.101C112.061 172.803 111.581 172.654 110.963 172.654H108.628V175.949ZM111.178 181.081C111.818 181.081 112.32 180.926 112.684 180.617C113.048 180.308 113.231 179.878 113.231 179.326C113.231 178.763 113.037 178.316 112.651 177.985C112.265 177.654 111.752 177.488 111.112 177.488H108.628V181.081H111.178Z" fill="#6C6D75"/>
</g>
</g>
</g>
<defs>
<clipPath id="clip0_22001_20204">
<rect width="240" height="240" fill="white" transform="translate(0.160156 0.398438)"/>
</clipPath>
<clipPath id="clip1_22001_20204">
<rect width="240" height="240" fill="white" transform="translate(0.160156 0.398438)"/>
</clipPath>
<clipPath id="clip2_22001_20204">
<rect width="240" height="240" fill="white" transform="translate(0.160156 0.398438)"/>
</clipPath>
</defs>
</svg>
